<svg width="643" height="619" viewBox="0 0 643 619" fill="none" xmlns="http://www.w3.org/2000/svg">
<path fill-rule="evenodd" clip-rule="evenodd" d="M343.001 101.786C346.495 101.968 349.181 104.947 348.999 108.442L345.587 174.125C345.406 177.619 342.426 180.304 338.932 180.123C335.438 179.941 332.752 176.962 332.934 173.467L336.346 107.784C336.527 104.29 339.507 101.605 343.001 101.786Z" fill="#4A3AFF"/>
<path fill-rule="evenodd" clip-rule="evenodd" d="M303.88 173.618C306.881 171.817 310.772 172.79 312.572 175.79C316.571 182.456 323.574 190.197 331.387 193.194C335.107 194.621 338.903 194.942 342.815 193.704C346.791 192.447 351.497 189.385 356.602 182.958C358.778 180.218 362.763 179.761 365.503 181.937C368.243 184.113 368.7 188.098 366.524 190.838C360.301 198.673 353.628 203.574 346.635 205.785C339.578 208.017 332.815 207.312 326.85 205.024C315.29 200.591 306.409 190.146 301.707 182.309C299.907 179.309 300.88 175.418 303.88 173.618Z" fill="#4A3AFF"/>
<path fill-rule="evenodd" clip-rule="evenodd" d="M376.95 180.947C379.804 178.923 383.758 179.595 385.782 182.449C389.791 188.1 396.398 196.849 403.122 204.646C406.487 208.548 409.808 212.126 412.795 214.935C413.451 215.551 414.069 216.11 414.648 216.613L432.156 183.175C432.947 181.665 434.313 180.537 435.946 180.047C437.579 179.556 439.34 179.745 440.832 180.569L486.213 205.648C489.276 207.341 490.386 211.195 488.694 214.257C487.002 217.32 483.147 218.43 480.085 216.738L440.375 194.793L422.567 228.804C421.026 231.746 417.474 232.999 414.428 231.675C411.005 230.187 407.4 227.254 404.115 224.166C400.685 220.941 397.046 217.001 393.526 212.921C386.482 204.752 379.628 195.673 375.448 189.779C373.424 186.926 374.096 182.971 376.95 180.947Z" fill="#4A3AFF"/>
<path fill-rule="evenodd" clip-rule="evenodd" d="M374.759 236.461C376.397 233.369 380.232 232.191 383.323 233.829L434.846 261.126C436.35 261.923 437.47 263.291 437.954 264.923C438.438 266.555 438.245 268.313 437.418 269.801L416.946 306.651C415.246 309.71 411.39 310.812 408.331 309.113C405.272 307.414 404.17 303.557 405.87 300.498L423.204 269.297L377.392 245.025C374.3 243.387 373.121 239.553 374.759 236.461Z" fill="#4A3AFF"/>
<path fill-rule="evenodd" clip-rule="evenodd" d="M337.556 321.033C327.581 315.199 314.621 313.201 305.687 313.28L299.352 313.336L299.24 300.666L305.575 300.61C315.92 300.518 331.366 302.734 343.953 310.096C350.328 313.824 356.167 318.993 360.086 326.038C364.037 333.14 365.801 341.733 364.642 351.852C362.507 370.504 357.11 382.268 350.196 389.095C343.17 396.032 334.941 397.443 328.884 395.804L322.769 394.148L326.08 381.918L332.195 383.573C333.702 383.981 337.33 383.993 341.294 380.079C345.369 376.055 350.095 367.517 352.054 350.411C352.943 342.65 351.551 336.759 349.013 332.197C346.444 327.578 342.463 323.903 337.556 321.033Z" fill="#4A3AFF"/>
<path fill-rule="evenodd" clip-rule="evenodd" d="M352.101 400.459C352.303 396.966 355.298 394.298 358.791 394.5L389.034 396.247C390.873 396.353 392.575 397.255 393.696 398.717C394.817 400.179 395.246 402.057 394.871 403.861L384.972 451.486C384.26 454.912 380.905 457.112 377.48 456.4C374.054 455.688 371.854 452.334 372.566 448.908L380.971 408.473L358.06 407.149C354.567 406.948 351.899 403.952 352.101 400.459Z" fill="#4A3AFF"/>
<path fill-rule="evenodd" clip-rule="evenodd" d="M292.763 409.549C295.298 407.138 299.308 407.237 301.72 409.772C306.21 414.491 314.408 420.761 323.975 423.945C333.35 427.065 343.626 427.138 353.449 420.398C356.335 418.419 360.278 419.153 362.257 422.039C364.237 424.924 363.502 428.867 360.617 430.847C346.733 440.371 332.102 440.004 319.974 435.967C308.039 431.995 298.14 424.391 292.54 418.506C290.128 415.971 290.228 411.961 292.763 409.549Z" fill="#4A3AFF"/>
<path fill-rule="evenodd" clip-rule="evenodd" d="M142.901 362.368C143.939 365.709 142.072 369.26 138.73 370.298C71.3842 391.22 53.8843 428.144 51.358 441.561C50.7106 445 47.3984 447.262 43.9599 446.615C40.5215 445.967 38.2589 442.655 38.9064 439.217C42.4495 420.399 63.9691 380.256 134.971 358.198C138.313 357.16 141.863 359.027 142.901 362.368Z" fill="#4A3AFF"/>
<path fill-rule="evenodd" clip-rule="evenodd" d="M630.227 362.368C631.265 365.709 629.398 369.26 626.056 370.298C558.71 391.22 541.21 428.144 538.684 441.561C538.037 445 534.724 447.262 531.286 446.615C527.847 445.967 525.585 442.655 526.232 439.217C529.775 420.399 551.295 380.256 622.297 358.198C625.639 357.16 629.189 359.027 630.227 362.368Z" fill="#4A3AFF"/>
<path fill-rule="evenodd" clip-rule="evenodd" d="M479.98 256.015C477.691 258.662 473.69 258.952 471.044 256.663L441.301 230.941C438.654 228.652 438.364 224.652 440.653 222.005C442.941 219.359 446.942 219.069 449.589 221.357L479.332 247.079C481.978 249.368 482.268 253.369 479.98 256.015Z" fill="#4A3AFF"/>
<path fill-rule="evenodd" clip-rule="evenodd" d="M240.196 290.039C242.062 291.194 243.197 293.232 243.197 295.426V341.212L293.273 318.489C295.617 317.426 298.371 317.886 300.242 319.653C302.112 321.42 302.728 324.143 301.8 326.543L275.015 395.809C273.753 399.072 270.085 400.695 266.821 399.433C263.558 398.171 261.935 394.502 263.197 391.239L284.391 336.434L239.48 356.812C237.519 357.702 235.24 357.535 233.43 356.369C231.62 355.202 230.527 353.197 230.527 351.043V305.663L181.853 329.928C178.722 331.489 174.918 330.216 173.357 327.085C171.796 323.953 173.069 320.15 176.2 318.588L234.035 289.756C235.999 288.777 238.33 288.884 240.196 290.039Z" fill="#4A3AFF"/>
<path fill-rule="evenodd" clip-rule="evenodd" d="M292.91 517.003C283.243 517.796 274.444 520.533 269.482 522.722C266.28 524.133 262.541 522.683 261.129 519.481C259.717 516.28 261.167 512.54 264.369 511.128C270.495 508.426 280.668 505.294 291.875 504.375C303.033 503.46 315.979 504.682 326.934 511.559C329.898 513.42 330.792 517.33 328.932 520.293C327.072 523.257 323.161 524.151 320.198 522.291C312.455 517.43 302.625 516.207 292.91 517.003Z" fill="#4A3AFF"/>
<path fill-rule="evenodd" clip-rule="evenodd" d="M286.575 450.766C277.767 452.759 269.452 459.894 264.507 466.297C262.368 469.066 258.39 469.577 255.621 467.438C252.851 465.299 252.34 461.321 254.479 458.552C260.339 450.965 270.945 441.312 283.78 438.408C290.384 436.914 297.584 437.219 304.759 440.544C311.869 443.839 318.462 449.868 324.355 458.985C326.254 461.924 325.412 465.845 322.473 467.745C319.535 469.644 315.613 468.802 313.714 465.863C308.756 458.193 303.832 454.079 299.432 452.04C295.097 450.032 290.794 449.812 286.575 450.766Z" fill="#4A3AFF"/>
<path fill-rule="evenodd" clip-rule="evenodd" d="M173.253 543.862C173.531 547.349 170.929 550.402 167.441 550.681C156.197 551.578 139.426 549.895 126.02 541.29C119.204 536.915 113.222 530.716 109.448 522.205C105.68 513.711 104.298 503.334 105.99 490.879C106.461 487.412 109.653 484.984 113.12 485.455C116.587 485.925 119.016 489.118 118.545 492.585C117.106 503.179 118.389 511.113 121.03 517.069C123.664 523.008 127.835 527.399 132.865 530.627C143.152 537.231 156.846 538.816 166.433 538.05C169.921 537.772 172.974 540.374 173.253 543.862Z" fill="#4A3AFF"/>
<path fill-rule="evenodd" clip-rule="evenodd" d="M395.993 459.749C399.447 459.185 402.703 461.527 403.267 464.98C404.393 471.877 408.868 482.216 418.65 489.794C428.229 497.214 443.57 502.502 467.499 498.347C470.946 497.749 474.226 500.058 474.824 503.506C475.423 506.953 473.114 510.233 469.666 510.831C442.821 515.492 423.728 509.754 410.891 499.81C398.258 490.024 392.336 476.662 390.762 467.022C390.198 463.569 392.54 460.313 395.993 459.749Z" fill="#4A3AFF"/>
<path fill-rule="evenodd" clip-rule="evenodd" d="M85.7788 186.161C67.7067 185.023 51.3027 188.902 41.9667 192.702C38.7261 194.022 35.0296 192.464 33.7103 189.224C32.391 185.983 33.9486 182.286 37.1892 180.967C48.1352 176.511 66.4394 172.247 86.5754 173.516C106.812 174.791 129.252 181.691 147.733 199.99C150.22 202.452 150.24 206.463 147.778 208.949C145.316 211.435 141.305 211.455 138.819 208.994C123.019 193.35 103.751 187.293 85.7788 186.161Z" fill="#4A3AFF"/>
<path fill-rule="evenodd" clip-rule="evenodd" d="M573.105 186.161C555.033 185.023 538.629 188.902 529.293 192.702C526.052 194.022 522.356 192.464 521.036 189.224C519.717 185.983 521.275 182.286 524.515 180.967C535.461 176.511 553.766 172.247 573.902 173.516C594.138 174.791 616.578 181.691 635.059 199.99C637.546 202.452 637.566 206.463 635.104 208.949C632.642 211.435 628.631 211.455 626.145 208.994C610.345 193.35 591.077 187.293 573.105 186.161Z" fill="#4A3AFF"/>
<path fill-rule="evenodd" clip-rule="evenodd" d="M361.513 470.831C364.644 472.393 365.915 476.198 364.353 479.328L350.264 507.565C348.702 510.695 344.898 511.967 341.767 510.405C338.636 508.843 337.365 505.038 338.927 501.907L353.016 473.671C354.578 470.541 358.382 469.269 361.513 470.831Z" fill="#4A3AFF"/>
<path fill-rule="evenodd" clip-rule="evenodd" d="M478.574 162.317C480.61 159.472 484.567 158.815 487.413 160.851L506.76 174.691C508.422 175.88 509.409 177.799 509.409 179.843V201.682L536.392 205.39C539.858 205.866 542.282 209.062 541.806 212.528C541.33 215.994 538.134 218.418 534.667 217.942L502.211 213.483C499.075 213.052 496.738 210.372 496.738 207.207V183.101L480.041 171.156C477.195 169.12 476.539 165.163 478.574 162.317Z" fill="#4A3AFF"/>
<path fill-rule="evenodd" clip-rule="evenodd" d="M260.341 581.949C258.178 581.881 256.2 580.714 255.095 578.855L240.492 554.297L218.219 584.574C216.695 586.646 214.07 587.591 211.576 586.965C209.082 586.34 207.212 584.269 206.846 581.724L199.511 530.84C199.012 527.377 201.414 524.165 204.877 523.665C208.34 523.166 211.552 525.569 212.052 529.032L217.179 564.605L235.949 539.09C237.208 537.379 239.24 536.413 241.362 536.517C243.484 536.621 245.412 537.781 246.498 539.607L260.91 563.844L281.773 533.31C283.747 530.421 287.689 529.679 290.578 531.653C293.467 533.627 294.209 537.569 292.235 540.458L265.771 579.191C264.55 580.977 262.503 582.017 260.341 581.949Z" fill="#4A3AFF"/>
<path fill-rule="evenodd" clip-rule="evenodd" d="M260.341 94.6228C258.178 94.5547 256.2 93.3881 255.095 91.5286L240.492 66.9714L218.219 97.2483C216.695 99.3198 214.07 100.265 211.576 99.6395C209.082 99.0144 207.212 96.9434 206.846 94.3981L199.511 43.5136C199.012 40.0506 201.414 36.8385 204.877 36.3393C208.34 35.8401 211.552 38.2428 212.052 41.7059L217.179 77.2795L235.949 51.7645C237.208 50.0534 239.24 49.0871 241.362 49.1909C243.484 49.2947 245.412 50.4549 246.498 52.2806L260.91 76.5185L281.773 45.9837C283.747 43.0948 287.689 42.3529 290.578 44.3268C293.467 46.3006 294.209 50.2427 292.235 53.1316L265.771 91.8646C264.55 93.6509 262.503 94.6908 260.341 94.6228Z" fill="#4A3AFF"/>
<path fill-rule="evenodd" clip-rule="evenodd" d="M489.663 90.1215C492.465 92.2172 493.037 96.1873 490.942 98.9892C486.615 104.774 480.584 114.199 476.597 123.503C474.6 128.161 473.234 132.521 472.746 136.217C472.249 139.99 472.76 142.319 473.583 143.651C475.421 146.628 474.499 150.531 471.522 152.37C468.545 154.208 464.641 153.286 462.803 150.309C459.816 145.473 459.499 139.76 460.185 134.56C460.88 129.285 462.709 123.742 464.951 118.512C469.44 108.037 476.055 97.7376 480.795 91.4003C482.891 88.5984 486.861 88.0259 489.663 90.1215Z" fill="#4A3AFF"/>
<path fill-rule="evenodd" clip-rule="evenodd" d="M489.81 284.267C490.665 280.874 488.609 277.43 485.216 276.575C481.823 275.719 478.38 277.776 477.524 281.169L471.92 303.395L445.509 296.782C442.115 295.933 438.675 297.995 437.825 301.389C436.975 304.783 439.037 308.224 442.432 309.073L468.822 315.681L463.182 338.049C462.326 341.442 464.383 344.885 467.776 345.741C471.168 346.596 474.612 344.54 475.468 341.147L481.113 318.759L506.641 325.151C510.035 326.001 513.476 323.938 514.325 320.544C515.175 317.15 513.113 313.71 509.719 312.86L484.211 306.473L489.81 284.267Z" fill="#4A3AFF"/>
<path fill-rule="evenodd" clip-rule="evenodd" d="M107.299 69.0637C108.154 65.671 106.097 62.2272 102.705 61.3718C99.3121 60.5163 95.8683 62.5731 95.0128 65.9658L89.4084 88.1924L62.9978 81.5795C59.6038 80.7296 56.1634 82.7921 55.3135 86.1862C54.4637 89.5803 56.5262 93.0207 59.9203 93.8705L86.3105 100.478L80.6704 122.846C79.8149 126.239 81.8718 129.683 85.2644 130.538C88.6571 131.394 92.1009 129.337 92.9563 125.944L98.6015 103.556L124.13 109.948C127.524 110.798 130.964 108.735 131.814 105.341C132.664 101.947 130.602 98.5067 127.207 97.6569L101.699 91.2699L107.299 69.0637Z" fill="#4A3AFF"/>
<path fill-rule="evenodd" clip-rule="evenodd" d="M594.625 69.0637C595.48 65.671 593.424 62.2272 590.031 61.3718C586.638 60.5163 583.194 62.5731 582.339 65.9658L576.735 88.1924L550.324 81.5795C546.93 80.7296 543.49 82.7921 542.64 86.1862C541.79 89.5803 543.852 93.0207 547.246 93.8705L573.637 100.478L567.997 122.846C567.141 126.239 569.198 129.683 572.591 130.538C575.983 131.394 579.427 129.337 580.283 125.944L585.928 103.556L611.456 109.948C614.85 110.798 618.291 108.735 619.14 105.341C619.99 101.947 617.928 98.5067 614.534 97.6569L589.026 91.2699L594.625 69.0637Z" fill="#4A3AFF"/>
<path fill-rule="evenodd" clip-rule="evenodd" d="M107.299 556.39C108.154 552.997 106.097 549.553 102.705 548.698C99.3121 547.842 95.8683 549.899 95.0128 553.292L89.4084 575.519L62.9978 568.906C59.6038 568.056 56.1634 570.118 55.3135 573.512C54.4637 576.906 56.5262 580.347 59.9203 581.197L86.3105 587.805L80.6704 610.172C79.8149 613.565 81.8718 617.009 85.2644 617.864C88.6571 618.72 92.1009 616.663 92.9563 613.27L98.6015 590.882L124.13 597.274C127.524 598.124 130.964 596.061 131.814 592.667C132.664 589.273 130.601 585.833 127.207 584.983L101.699 578.596L107.299 556.39Z" fill="#4A3AFF"/>
<path fill-rule="evenodd" clip-rule="evenodd" d="M163.671 307.865C165.933 305.195 165.602 301.198 162.932 298.936C160.263 296.675 156.265 297.006 154.003 299.675L141.753 314.137L137.129 309.341C134.701 306.822 130.691 306.748 128.172 309.176C125.652 311.604 125.579 315.615 128.007 318.134L133.521 323.855L123.276 335.949C121.014 338.619 121.345 342.617 124.015 344.878C126.684 347.14 130.682 346.809 132.944 344.139L142.359 333.024L149.418 340.348C151.847 342.867 155.857 342.941 158.376 340.513C160.895 338.085 160.969 334.074 158.541 331.555L150.591 323.307L163.671 307.865Z" fill="#4A3AFF"/>
<path fill-rule="evenodd" clip-rule="evenodd" d="M178.894 125.081C182.319 124.368 184.518 121.014 183.805 117.588C183.093 114.163 179.738 111.964 176.312 112.676L117.283 124.96C113.857 125.673 111.658 129.028 112.371 132.453C113.084 135.879 116.439 138.078 119.864 137.365L178.894 125.081ZM183.11 148.905C186.514 148.098 188.62 144.684 187.812 141.279C187.005 137.875 183.591 135.769 180.186 136.577L120.474 150.737C117.07 151.544 114.965 154.959 115.772 158.363C116.579 161.767 119.994 163.873 123.398 163.065L183.11 148.905Z" fill="#4A3AFF"/>
<path fill-rule="evenodd" clip-rule="evenodd" d="M255.786 247.269C255.26 243.81 252.03 241.432 248.57 241.957C245.111 242.483 242.733 245.713 243.259 249.172L250.595 297.454C251.12 300.913 254.351 303.291 257.81 302.765C261.269 302.24 263.647 299.009 263.122 295.55L255.786 247.269ZM278.718 247.853C278.414 244.368 275.342 241.789 271.856 242.093C268.37 242.398 265.792 245.47 266.096 248.956L269.508 288.024C269.813 291.51 272.885 294.089 276.371 293.784C279.856 293.48 282.435 290.407 282.131 286.922L278.718 247.853Z" fill="#4A3AFF"/>
<path fill-rule="evenodd" clip-rule="evenodd" d="M214.13 124.791C212.511 124.182 210.713 124.262 209.155 125.012C207.596 125.761 206.412 127.116 205.876 128.76L189.498 179.089C188.415 182.416 190.235 185.991 193.562 187.074C196.889 188.156 200.464 186.337 201.547 183.01L215.874 138.982L259.147 155.247C262.422 156.478 266.075 154.821 267.306 151.546C268.537 148.271 266.88 144.618 263.605 143.387L214.13 124.791ZM231.376 161.627C230.796 158.176 227.529 155.849 224.078 156.429C220.628 157.009 218.301 160.276 218.881 163.727C221.41 178.778 235.391 211.447 271.598 225.723C274.852 227.007 278.532 225.409 279.815 222.154C281.099 218.899 279.5 215.22 276.245 213.936C245.302 201.735 233.396 173.645 231.376 161.627Z" fill="#4A3AFF"/>
<path fill-rule="evenodd" clip-rule="evenodd" d="M235.653 444.203C237.771 441.418 237.23 437.443 234.445 435.325C231.66 433.207 227.685 433.748 225.567 436.533L197.107 473.96C194.99 476.745 195.531 480.72 198.316 482.837C201.101 484.955 205.075 484.414 207.193 481.629L235.653 444.203ZM185.35 455.338C184.978 451.859 181.857 449.34 178.378 449.712C174.899 450.084 172.38 453.206 172.752 456.685L177.874 504.589C178.058 506.318 178.946 507.896 180.329 508.951C181.711 510.006 183.467 510.447 185.184 510.169L231.621 502.661C235.075 502.102 237.423 498.85 236.864 495.396C236.306 491.942 233.053 489.594 229.599 490.153L189.761 496.594L185.35 455.338Z" fill="#4A3AFF"/>
<path fill-rule="evenodd" clip-rule="evenodd" d="M314.623 230.132V269.621H354.112V230.132H314.623ZM305.632 217.462C303.6 217.462 301.952 219.109 301.952 221.141V278.612C301.952 280.644 303.6 282.292 305.632 282.292H363.103C365.135 282.292 366.782 280.644 366.782 278.612V221.141C366.782 219.109 365.135 217.462 363.103 217.462H305.632Z" fill="#4A3AFF"/>
<path fill-rule="evenodd" clip-rule="evenodd" d="M401.037 145.985L405.473 163.774L423.262 159.338L418.826 141.549L401.037 145.985ZM389.247 135.866C387.276 136.358 386.076 138.354 386.568 140.326L395.354 175.563C395.846 177.535 397.843 178.735 399.815 178.243L435.052 169.456C437.024 168.965 438.223 166.968 437.732 164.996L428.945 129.759C428.453 127.787 426.456 126.587 424.485 127.079L389.247 135.866Z" fill="#4A3AFF"/>
<path fill-rule="evenodd" clip-rule="evenodd" d="M172.311 390.423L199.378 417.49L226.445 390.423L199.378 363.356L172.311 390.423ZM156.994 387.821C155.557 389.258 155.557 391.588 156.994 393.024L196.776 432.807C198.213 434.244 200.543 434.244 201.98 432.807L241.762 393.024C243.199 391.588 243.199 389.258 241.762 387.821L201.98 348.039C200.543 346.602 198.213 346.602 196.776 348.039L156.994 387.821Z" fill="#4A3AFF"/>
<path fill-rule="evenodd" clip-rule="evenodd" d="M426.189 413.731L468.041 446.752L496.919 410.152L455.067 377.131L426.189 413.731ZM410.673 412.941C409.414 414.536 409.687 416.85 411.283 418.109L467.252 462.269C468.847 463.527 471.16 463.255 472.419 461.659L512.435 410.942C513.694 409.347 513.421 407.033 511.826 405.774L455.857 361.614C454.262 360.356 451.948 360.629 450.69 362.224L410.673 412.941Z" fill="#4A3AFF"/>
<path fill-rule="evenodd" clip-rule="evenodd" d="M407.687 364.554C416.424 364.554 423.507 357.471 423.507 348.733C423.507 339.996 416.424 332.913 407.687 332.913C398.949 332.913 391.866 339.996 391.866 348.733C391.866 357.471 398.949 364.554 407.687 364.554ZM407.687 377.224C423.422 377.224 436.178 364.468 436.178 348.733C436.178 332.998 423.422 320.242 407.687 320.242C391.952 320.242 379.196 332.998 379.196 348.733C379.196 364.468 391.952 377.224 407.687 377.224Z" fill="#4A3AFF"/>
<path fill-rule="evenodd" clip-rule="evenodd" d="M195.541 260.189C207.011 260.189 216.309 250.891 216.309 239.421C216.309 227.951 207.011 218.653 195.541 218.653C184.071 218.653 174.773 227.951 174.773 239.421C174.773 250.891 184.071 260.189 195.541 260.189ZM195.541 272.86C214.008 272.86 228.979 257.889 228.979 239.421C228.979 220.953 214.008 205.982 195.541 205.982C177.073 205.982 162.102 220.953 162.102 239.421C162.102 257.889 177.073 272.86 195.541 272.86Z" fill="#4A3AFF"/>
<path fill-rule="evenodd" clip-rule="evenodd" d="M294.823 136.73C304.691 136.73 312.69 128.73 312.69 118.862C312.69 108.994 304.691 100.994 294.823 100.994C284.954 100.994 276.955 108.994 276.955 118.862C276.955 128.73 284.954 136.73 294.823 136.73ZM294.823 149.4C311.688 149.4 325.361 135.728 325.361 118.862C325.361 101.996 311.688 88.3235 294.823 88.3235C277.957 88.3235 264.284 101.996 264.284 118.862C264.284 135.728 277.957 149.4 294.823 149.4Z" fill="#4A3AFF"/>
<path fill-rule="evenodd" clip-rule="evenodd" d="M532.974 262.37C537.66 262.37 541.459 258.572 541.459 253.886C541.459 249.2 537.66 245.401 532.974 245.401C528.288 245.401 524.49 249.2 524.49 253.886C524.49 258.572 528.288 262.37 532.974 262.37ZM532.974 275.041C544.658 275.041 554.129 265.569 554.129 253.886C554.129 242.202 544.658 232.731 532.974 232.731C521.291 232.731 511.819 242.202 511.819 253.886C511.819 265.569 521.291 275.041 532.974 275.041Z" fill="#4A3AFF"/>
<path fill-rule="evenodd" clip-rule="evenodd" d="M563.13 347.958C577.521 347.958 589.187 336.292 589.187 321.901C589.187 307.511 577.521 295.844 563.13 295.844C548.739 295.844 537.073 307.511 537.073 321.901C537.073 336.292 548.739 347.958 563.13 347.958ZM563.13 360.629C584.518 360.629 601.857 343.29 601.857 321.901C601.857 300.513 584.518 283.174 563.13 283.174C541.741 283.174 524.402 300.513 524.402 321.901C524.402 343.29 541.741 360.629 563.13 360.629Z" fill="#4A3AFF"/>
<path fill-rule="evenodd" clip-rule="evenodd" d="M75.8038 347.958C90.1947 347.958 101.861 336.292 101.861 321.901C101.861 307.511 90.1947 295.844 75.8038 295.844C61.413 295.844 49.7469 307.511 49.7469 321.901C49.7469 336.292 61.413 347.958 75.8038 347.958ZM75.8038 360.629C97.1924 360.629 114.531 343.29 114.531 321.901C114.531 300.513 97.1924 283.174 75.8038 283.174C54.4153 283.174 37.0764 300.513 37.0764 321.901C37.0764 343.29 54.4153 360.629 75.8038 360.629Z" fill="#4A3AFF"/>
<path fill-rule="evenodd" clip-rule="evenodd" d="M393.127 588.469C409.188 595.178 427.647 587.598 434.356 571.537C441.066 555.476 433.485 537.017 417.424 530.307C401.363 523.598 382.904 531.179 376.195 547.24C369.485 563.3 377.066 581.759 393.127 588.469ZM388.243 600.16C410.761 609.567 436.641 598.939 446.048 576.421C455.455 553.903 444.826 528.023 422.308 518.616C399.791 509.209 373.911 519.838 364.504 542.355C355.097 564.873 365.725 590.753 388.243 600.16Z" fill="#4A3AFF"/>
<path fill-rule="evenodd" clip-rule="evenodd" d="M393.127 101.143C409.188 107.852 427.647 100.271 434.356 84.2106C441.066 68.1497 433.485 49.6907 417.424 42.9812C401.363 36.2717 382.904 43.8525 376.195 59.9133C369.485 75.9742 377.066 94.4332 393.127 101.143ZM388.243 112.834C410.761 122.241 436.641 111.612 446.048 89.0947C455.455 66.5769 444.826 40.6968 422.308 31.2899C399.791 21.883 373.911 32.5115 364.504 55.0292C355.097 77.547 365.725 103.427 388.243 112.834Z" fill="#4A3AFF"/>
<path fill-rule="evenodd" clip-rule="evenodd" d="M95.7989 444.958C93.4656 446.564 93.7454 450.093 96.3025 451.311L143.755 473.912C146.312 475.13 149.228 473.123 149.004 470.3L144.851 417.904C144.627 415.081 141.431 413.559 139.098 415.164L95.7989 444.958ZM133.451 434.43L115.811 446.568L135.143 455.776L133.451 434.43Z" fill="#4A3AFF"/>
<path fill-rule="evenodd" clip-rule="evenodd" d="M480.207 537.657C479.083 540.247 481.174 543.086 483.981 542.78L555.904 534.937C558.711 534.63 560.142 531.408 558.486 529.121L515.644 469.953C513.972 467.644 510.424 468.031 509.289 470.646L480.207 537.657ZM514.632 490.16L497.991 528.507L539.148 524.018L514.632 490.16Z" fill="#4A3AFF"/>
<path fill-rule="evenodd" clip-rule="evenodd" d="M562.125 128.976C564.458 127.37 564.178 123.841 561.621 122.623L514.169 100.022C511.612 98.804 508.696 100.811 508.919 103.634L513.073 156.03C513.296 158.853 516.493 160.375 518.826 158.77L562.125 128.976ZM524.473 139.504L542.113 127.365L522.781 118.158L524.473 139.504Z" fill="#4A3AFF"/>
<path fill-rule="evenodd" clip-rule="evenodd" d="M74.799 128.976C77.1323 127.37 76.8525 123.841 74.2954 122.623L26.8434 100.022C24.2863 98.804 21.3697 100.811 21.5935 103.634L25.7466 156.03C25.9704 158.853 29.1668 160.375 31.5001 158.77L74.799 128.976ZM37.1469 139.504L54.7871 127.365L35.4549 118.158L37.1469 139.504Z" fill="#4A3AFF"/>
<path fill-rule="evenodd" clip-rule="evenodd" d="M557.196 455.236C554.394 455.648 553.089 458.939 554.847 461.16L587.469 502.37C589.226 504.591 592.729 504.076 593.773 501.443L613.152 452.587C614.196 449.954 611.999 447.178 609.197 447.59L557.196 455.236ZM595.632 462.391L574.447 465.506L587.737 482.296L595.632 462.391Z" fill="#4A3AFF"/>
<path fill-rule="evenodd" clip-rule="evenodd" d="M93.8536 245.919C91.1635 246.805 90.4417 250.271 92.5542 252.158L129.074 284.771C131.187 286.657 134.55 285.549 135.127 282.776L145.11 234.843C145.688 232.07 143.047 229.712 140.357 230.598L93.8536 245.919ZM129.531 247.505L112.61 253.08L125.898 264.947L129.531 247.505Z" fill="#4A3AFF"/>
<path d="M280.915 179.128C280.915 182.991 277.783 186.122 273.92 186.122C270.057 186.122 266.925 182.991 266.925 179.128C266.925 175.265 270.057 172.133 273.92 172.133C277.783 172.133 280.915 175.265 280.915 179.128Z" fill="#4A3AFF"/>
<path d="M392.655 284.944C392.655 288.807 389.523 291.939 385.66 291.939C381.797 291.939 378.665 288.807 378.665 284.944C378.665 281.081 381.797 277.949 385.66 277.949C389.523 277.949 392.655 281.081 392.655 284.944Z" fill="#4A3AFF"/>
<path d="M114.533 218.856C114.533 222.719 111.401 225.85 107.538 225.85C103.675 225.85 100.543 222.719 100.543 218.856C100.543 214.992 103.675 211.861 107.538 211.861C111.401 211.861 114.533 214.992 114.533 218.856Z" fill="#4A3AFF"/>
<path d="M168.625 82.0145C168.625 85.8776 165.494 89.0093 161.631 89.0093C157.767 89.0093 154.636 85.8776 154.636 82.0145C154.636 78.1513 157.767 75.0197 161.631 75.0197C165.494 75.0197 168.625 78.1513 168.625 82.0145Z" fill="#4A3AFF"/>
<path d="M168.625 569.341C168.625 573.204 165.494 576.335 161.631 576.335C157.767 576.335 154.636 573.204 154.636 569.341C154.636 565.477 157.767 562.346 161.631 562.346C165.494 562.346 168.625 565.477 168.625 569.341Z" fill="#4A3AFF"/>
<path d="M143.948 516.988C140.881 514.639 140.3 510.248 142.65 507.182C144.999 504.115 149.39 503.534 152.456 505.883C155.523 508.233 156.104 512.623 153.755 515.69C151.405 518.756 147.015 519.338 143.948 516.988Z" fill="#4A3AFF"/>
<path d="M295.889 478.806C295.889 482.669 292.758 485.801 288.894 485.801C285.031 485.801 281.9 482.669 281.9 478.806C281.9 474.943 285.031 471.811 288.894 471.811C292.758 471.811 295.889 474.943 295.889 478.806Z" fill="#4A3AFF"/>
<path d="M333.001 550.773C333.001 554.637 329.869 557.768 326.006 557.768C322.143 557.768 319.011 554.637 319.011 550.773C319.011 546.91 322.143 543.779 326.006 543.779C329.869 543.779 333.001 546.91 333.001 550.773Z" fill="#4A3AFF"/>
<path d="M445.866 470.413C445.866 474.276 442.734 477.408 438.871 477.408C435.008 477.408 431.876 474.276 431.876 470.413C431.876 466.55 435.008 463.418 438.871 463.418C442.734 463.418 445.866 466.55 445.866 470.413Z" fill="#4A3AFF"/>
<path d="M269.73 424.095C269.73 427.958 266.598 431.09 262.735 431.09C258.872 431.09 255.74 427.958 255.74 424.095C255.74 420.232 258.872 417.1 262.735 417.1C266.598 417.1 269.73 420.232 269.73 424.095Z" fill="#4A3AFF"/>
<path d="M412.24 559.35C412.24 563.213 409.108 566.345 405.245 566.345C401.382 566.345 398.25 563.213 398.25 559.35C398.25 555.487 401.382 552.355 405.245 552.355C409.108 552.355 412.24 555.487 412.24 559.35Z" fill="#4A3AFF"/>
<path d="M117.288 406.71C117.288 410.573 114.157 413.705 110.293 413.705C106.43 413.705 103.299 410.573 103.299 406.71C103.299 402.847 106.43 399.715 110.293 399.715C114.157 399.715 117.288 402.847 117.288 406.71Z" fill="#4A3AFF"/>
<path d="M325.324 352.349C325.324 356.212 322.192 359.344 318.329 359.344C314.466 359.344 311.334 356.212 311.334 352.349C311.334 348.486 314.466 345.354 318.329 345.354C322.192 345.354 325.324 348.486 325.324 352.349Z" fill="#4A3AFF"/>
<path d="M468.526 411.934C468.526 415.797 465.395 418.929 461.531 418.929C457.668 418.929 454.537 415.797 454.537 411.934C454.537 408.071 457.668 404.939 461.531 404.939C465.395 404.939 468.526 408.071 468.526 411.934Z" fill="#4A3AFF"/>
<path d="M516.625 367.636C516.625 371.499 513.493 374.631 509.63 374.631C505.767 374.631 502.635 371.499 502.635 367.636C502.635 363.773 505.767 360.641 509.63 360.641C513.493 360.641 516.625 363.773 516.625 367.636Z" fill="#4A3AFF"/>
<path d="M583.979 418.54C583.979 422.403 580.847 425.534 576.984 425.534C573.121 425.534 569.989 422.403 569.989 418.54C569.989 414.676 573.121 411.545 576.984 411.545C580.847 411.545 583.979 414.676 583.979 418.54Z" fill="#4A3AFF"/>
</svg>